<mxfile host="app.diagrams.net" modified="2021-06-04T09:25:28.473Z" agent="5.0 (X11)" etag="Lps60gNqXwKPpfNQEtCW" version="14.7.5" type="github">
  <diagram name="Page-1" id="c9db0220-8083-56f3-ca83-edcdcd058819">
    <mxGraphModel dx="1267" dy="913" grid="1" gridSize="11" guides="1" tooltips="1" connect="1" arrows="1" fold="1" page="1" pageScale="1.5" pageWidth="900" pageHeight="1600" background="#ffffff" math="0" shadow="1">
      <root>
        <object label="" id="0">
          <mxCell style=";html=1;" />
        </object>
        <mxCell id="1" style=";html=1;" parent="0" />
        <mxCell id="3Kz9qhTlE9TeD2FntRG9-108" value="Secondary" style="html=1;verticalLabelPosition=bottom;align=center;labelBackgroundColor=#ffffff;verticalAlign=top;strokeWidth=1;strokeColor=#6C767D;shadow=0;dashed=0;shape=mxgraph.ios7.icons.back;fontFamily=Helvetica;fontSize=16;fontColor=#6C767D;" vertex="1" parent="1">
          <mxGeometry x="616" y="198" width="22" height="16" as="geometry" />
        </mxCell>
        <mxCell id="3Kz9qhTlE9TeD2FntRG9-1" value="" style="strokeWidth=1;shadow=0;dashed=0;align=center;html=1;shape=mxgraph.mockup.containers.browserWindow;rSize=0;strokeColor=#666666;strokeColor2=#008cff;strokeColor3=#c4c4c4;mainText=,;recursiveResize=0;" vertex="1" parent="1">
          <mxGeometry x="484" y="66" width="1240" height="671" as="geometry" />
        </mxCell>
        <mxCell id="3Kz9qhTlE9TeD2FntRG9-2" value="Page 1" style="strokeWidth=1;shadow=0;dashed=0;align=center;html=1;shape=mxgraph.mockup.containers.anchor;fontSize=17;fontColor=#666666;align=left;" vertex="1" parent="3Kz9qhTlE9TeD2FntRG9-1">
          <mxGeometry x="60" y="12" width="110" height="26" as="geometry" />
        </mxCell>
        <mxCell id="3Kz9qhTlE9TeD2FntRG9-3" value="https://www.draw.io" style="strokeWidth=1;shadow=0;dashed=0;align=center;html=1;shape=mxgraph.mockup.containers.anchor;rSize=0;fontSize=17;fontColor=#666666;align=left;" vertex="1" parent="3Kz9qhTlE9TeD2FntRG9-1">
          <mxGeometry x="130" y="60" width="250" height="26" as="geometry" />
        </mxCell>
        <mxCell id="3Kz9qhTlE9TeD2FntRG9-4" value="" style="strokeWidth=1;shadow=0;dashed=0;align=center;html=1;shape=mxgraph.mockup.containers.rrect;rSize=0;strokeColor=#666666;" vertex="1" parent="3Kz9qhTlE9TeD2FntRG9-1">
          <mxGeometry y="110" width="110" height="490" as="geometry" />
        </mxCell>
        <mxCell id="3Kz9qhTlE9TeD2FntRG9-5" value="Group 1" style="strokeColor=inherit;fillColor=inherit;gradientColor=inherit;strokeWidth=1;shadow=0;dashed=0;align=center;html=1;shape=mxgraph.mockup.containers.rrect;rSize=0;fontSize=17;fontColor=#666666;fontStyle=1;resizeWidth=1;" vertex="1" parent="3Kz9qhTlE9TeD2FntRG9-4">
          <mxGeometry width="110.00000000000001" height="26" relative="1" as="geometry" />
        </mxCell>
        <mxCell id="3Kz9qhTlE9TeD2FntRG9-6" value="Group 2" style="strokeColor=inherit;fillColor=inherit;gradientColor=inherit;strokeWidth=1;shadow=0;dashed=0;align=center;html=1;shape=mxgraph.mockup.containers.rrect;rSize=0;fontSize=17;fontColor=#666666;fontStyle=1;resizeWidth=1;" vertex="1" parent="3Kz9qhTlE9TeD2FntRG9-4">
          <mxGeometry width="110.00000000000001" height="26" relative="1" as="geometry">
            <mxPoint y="26" as="offset" />
          </mxGeometry>
        </mxCell>
        <mxCell id="3Kz9qhTlE9TeD2FntRG9-7" value="Group 3" style="strokeWidth=1;shadow=0;dashed=0;align=center;html=1;shape=mxgraph.mockup.containers.rrect;rSize=0;fontSize=17;fontColor=#ffffff;fontStyle=1;fillColor=#008cff;strokeColor=#008cff;resizeWidth=1;" vertex="1" parent="3Kz9qhTlE9TeD2FntRG9-4">
          <mxGeometry width="110.00000000000001" height="26" relative="1" as="geometry">
            <mxPoint y="52" as="offset" />
          </mxGeometry>
        </mxCell>
        <mxCell id="3Kz9qhTlE9TeD2FntRG9-8" value="Group 4" style="strokeColor=inherit;fillColor=inherit;gradientColor=inherit;strokeWidth=1;shadow=0;dashed=0;align=center;html=1;shape=mxgraph.mockup.containers.rrect;rSize=0;fontSize=17;fontColor=#666666;fontStyle=1;resizeWidth=1;" vertex="1" parent="3Kz9qhTlE9TeD2FntRG9-4">
          <mxGeometry y="1" width="110.00000000000001" height="26" relative="1" as="geometry">
            <mxPoint y="-26" as="offset" />
          </mxGeometry>
        </mxCell>
        <mxCell id="3Kz9qhTlE9TeD2FntRG9-9" value="Aktuelle Policen" style="text;html=1;strokeColor=none;fillColor=none;align=center;verticalAlign=middle;whiteSpace=wrap;rounded=0;" vertex="1" parent="3Kz9qhTlE9TeD2FntRG9-1">
          <mxGeometry x="110" y="110" width="100" height="20" as="geometry" />
        </mxCell>
        <mxCell id="3Kz9qhTlE9TeD2FntRG9-10" value="" style="html=1;shadow=0;dashed=0;fillColor=#F8F9FA;strokeColor=#00CCCC;fontSize=16;fontColor=#181819;align=left;spacing=15;" vertex="1" parent="3Kz9qhTlE9TeD2FntRG9-1">
          <mxGeometry x="110" y="130" width="1056" height="47" as="geometry" />
        </mxCell>
        <mxCell id="3Kz9qhTlE9TeD2FntRG9-16" value="Search" style="html=1;shadow=0;dashed=0;shape=mxgraph.bootstrap.rrect;rSize=5;fontSize=14;fontColor=#33A64C;strokeColor=#33A64C;fillColor=none;" vertex="1" parent="3Kz9qhTlE9TeD2FntRG9-10">
          <mxGeometry x="1" width="70" height="33" relative="1" as="geometry">
            <mxPoint x="-80" y="10" as="offset" />
          </mxGeometry>
        </mxCell>
        <mxCell id="3Kz9qhTlE9TeD2FntRG9-17" value="Search" style="html=1;shadow=0;dashed=0;shape=mxgraph.bootstrap.rrect;rSize=5;fontSize=14;fontColor=#6C767D;strokeColor=#CED4DA;fillColor=#ffffff;align=left;spacing=10;" vertex="1" parent="3Kz9qhTlE9TeD2FntRG9-10">
          <mxGeometry x="1" width="180" height="33" relative="1" as="geometry">
            <mxPoint x="-270" y="10" as="offset" />
          </mxGeometry>
        </mxCell>
        <mxCell id="3Kz9qhTlE9TeD2FntRG9-111" value="" style="pointerEvents=1;shadow=0;dashed=0;html=1;strokeColor=none;fillColor=#505050;labelPosition=center;verticalLabelPosition=bottom;verticalAlign=top;outlineConnect=0;align=center;shape=mxgraph.office.concepts.backup_local;" vertex="1" parent="3Kz9qhTlE9TeD2FntRG9-10">
          <mxGeometry x="745" y="7" width="33" height="33" as="geometry" />
        </mxCell>
        <mxCell id="3Kz9qhTlE9TeD2FntRG9-98" value="&lt;font style=&quot;font-size: 14px&quot;&gt;&lt;b&gt;&lt;font style=&quot;font-size: 12px&quot;&gt;Kunde&lt;/font&gt;&lt;/b&gt;&lt;/font&gt;" style="html=1;shadow=0;dashed=0;shape=mxgraph.bootstrap.leftButton;strokeColor=#6C757D;gradientColor=inherit;fontColor=inherit;fillColor=#ffffff;rSize=5;perimeter=none;whiteSpace=wrap;resizeHeight=1;fontSize=14;align=left;spacing=15;" vertex="1" parent="3Kz9qhTlE9TeD2FntRG9-1">
          <mxGeometry width="80" height="40" relative="1" as="geometry">
            <mxPoint x="-118" as="offset" />
          </mxGeometry>
        </mxCell>
        <mxCell id="3Kz9qhTlE9TeD2FntRG9-99" value="" style="html=1;shadow=0;dashed=0;shape=mxgraph.bootstrap.rrect;rSize=5;strokeColor=#CED4DA;html=1;whiteSpace=wrap;fillColor=#FFFFFF;fontColor=#7D868C;align=left;spacing=15;spacingLeft=40;fontSize=14;" vertex="1" parent="3Kz9qhTlE9TeD2FntRG9-1">
          <mxGeometry x="110" y="177" width="1056" height="33" as="geometry" />
        </mxCell>
        <mxCell id="3Kz9qhTlE9TeD2FntRG9-167" value="" style="html=1;shadow=0;dashed=0;shape=mxgraph.bootstrap.rrect;rSize=5;strokeColor=#CED4DA;html=1;whiteSpace=wrap;fillColor=#FFFFFF;fontColor=#7D868C;align=left;spacingLeft=80;spacing=15;fontSize=14;" vertex="1" parent="3Kz9qhTlE9TeD2FntRG9-99">
          <mxGeometry x="418" width="22" height="33" as="geometry" />
        </mxCell>
        <mxCell id="3Kz9qhTlE9TeD2FntRG9-168" value="" style="shape=triangle;direction=south;fillColor=#343A40;strokeColor=none;perimeter=none;" vertex="1" parent="3Kz9qhTlE9TeD2FntRG9-167">
          <mxGeometry x="1" y="0.5" width="7" height="3" relative="1" as="geometry">
            <mxPoint x="-17" y="1" as="offset" />
          </mxGeometry>
        </mxCell>
        <mxCell id="3Kz9qhTlE9TeD2FntRG9-169" value="" style="shape=triangle;direction=north;fillColor=#343A40;strokeColor=none;perimeter=none;" vertex="1" parent="3Kz9qhTlE9TeD2FntRG9-167">
          <mxGeometry x="1" y="0.5" width="7" height="3" relative="1" as="geometry">
            <mxPoint x="-17" y="-4" as="offset" />
          </mxGeometry>
        </mxCell>
        <mxCell id="3Kz9qhTlE9TeD2FntRG9-164" value="" style="html=1;shadow=0;dashed=0;shape=mxgraph.bootstrap.rrect;rSize=5;strokeColor=#CED4DA;html=1;whiteSpace=wrap;fillColor=#FFFFFF;fontColor=#7D868C;align=left;spacingLeft=80;spacing=15;fontSize=14;" vertex="1" parent="3Kz9qhTlE9TeD2FntRG9-99">
          <mxGeometry x="506.0000000000001" width="29.040000000000003" height="33" as="geometry" />
        </mxCell>
        <mxCell id="3Kz9qhTlE9TeD2FntRG9-165" value="" style="shape=triangle;direction=south;fillColor=#343A40;strokeColor=none;perimeter=none;" vertex="1" parent="3Kz9qhTlE9TeD2FntRG9-164">
          <mxGeometry x="1" y="0.5" width="7" height="3" relative="1" as="geometry">
            <mxPoint x="-17" y="1" as="offset" />
          </mxGeometry>
        </mxCell>
        <mxCell id="3Kz9qhTlE9TeD2FntRG9-166" value="" style="shape=triangle;direction=north;fillColor=#343A40;strokeColor=none;perimeter=none;" vertex="1" parent="3Kz9qhTlE9TeD2FntRG9-164">
          <mxGeometry x="1" y="0.5" width="7" height="3" relative="1" as="geometry">
            <mxPoint x="-17" y="-4" as="offset" />
          </mxGeometry>
        </mxCell>
        <mxCell id="3Kz9qhTlE9TeD2FntRG9-161" value="" style="html=1;shadow=0;dashed=0;shape=mxgraph.bootstrap.rrect;rSize=5;strokeColor=#CED4DA;html=1;whiteSpace=wrap;fillColor=#FFFFFF;fontColor=#7D868C;align=left;spacingLeft=80;spacing=15;fontSize=14;" vertex="1" parent="3Kz9qhTlE9TeD2FntRG9-99">
          <mxGeometry x="594" width="29.040000000000003" height="33" as="geometry" />
        </mxCell>
        <mxCell id="3Kz9qhTlE9TeD2FntRG9-162" value="" style="shape=triangle;direction=south;fillColor=#343A40;strokeColor=none;perimeter=none;" vertex="1" parent="3Kz9qhTlE9TeD2FntRG9-161">
          <mxGeometry x="1" y="0.5" width="7" height="3" relative="1" as="geometry">
            <mxPoint x="-17" y="1" as="offset" />
          </mxGeometry>
        </mxCell>
        <mxCell id="3Kz9qhTlE9TeD2FntRG9-163" value="" style="shape=triangle;direction=north;fillColor=#343A40;strokeColor=none;perimeter=none;" vertex="1" parent="3Kz9qhTlE9TeD2FntRG9-161">
          <mxGeometry x="1" y="0.5" width="7" height="3" relative="1" as="geometry">
            <mxPoint x="-17" y="-4" as="offset" />
          </mxGeometry>
        </mxCell>
        <mxCell id="3Kz9qhTlE9TeD2FntRG9-182" value="" style="html=1;shadow=0;dashed=0;shape=mxgraph.bootstrap.rrect;rSize=5;strokeColor=#CED4DA;html=1;whiteSpace=wrap;fillColor=#FFFFFF;fontColor=#7D868C;align=left;spacingLeft=80;spacing=15;fontSize=14;" vertex="1" parent="3Kz9qhTlE9TeD2FntRG9-99">
          <mxGeometry x="693" width="29.040000000000003" height="33" as="geometry" />
        </mxCell>
        <mxCell id="3Kz9qhTlE9TeD2FntRG9-183" value="" style="shape=triangle;direction=south;fillColor=#343A40;strokeColor=none;perimeter=none;" vertex="1" parent="3Kz9qhTlE9TeD2FntRG9-182">
          <mxGeometry x="1" y="0.5" width="7" height="3" relative="1" as="geometry">
            <mxPoint x="-17" y="1" as="offset" />
          </mxGeometry>
        </mxCell>
        <mxCell id="3Kz9qhTlE9TeD2FntRG9-184" value="" style="shape=triangle;direction=north;fillColor=#343A40;strokeColor=none;perimeter=none;" vertex="1" parent="3Kz9qhTlE9TeD2FntRG9-182">
          <mxGeometry x="1" y="0.5" width="7" height="3" relative="1" as="geometry">
            <mxPoint x="-17" y="-4" as="offset" />
          </mxGeometry>
        </mxCell>
        <mxCell id="3Kz9qhTlE9TeD2FntRG9-87" value="" style="html=1;shadow=0;dashed=0;shape=mxgraph.bootstrap.rrect;rSize=5;strokeColor=#CED4DA;html=1;whiteSpace=wrap;fillColor=#FFFFFF;fontColor=#7D868C;align=left;spacingLeft=80;spacing=15;fontSize=14;" vertex="1" parent="3Kz9qhTlE9TeD2FntRG9-99">
          <mxGeometry x="66" width="29.040000000000003" height="33" as="geometry" />
        </mxCell>
        <mxCell id="3Kz9qhTlE9TeD2FntRG9-88" value="" style="shape=triangle;direction=south;fillColor=#343A40;strokeColor=none;perimeter=none;" vertex="1" parent="3Kz9qhTlE9TeD2FntRG9-87">
          <mxGeometry x="1" y="0.5" width="7" height="3" relative="1" as="geometry">
            <mxPoint x="-17" y="1" as="offset" />
          </mxGeometry>
        </mxCell>
        <mxCell id="3Kz9qhTlE9TeD2FntRG9-89" value="" style="shape=triangle;direction=north;fillColor=#343A40;strokeColor=none;perimeter=none;" vertex="1" parent="3Kz9qhTlE9TeD2FntRG9-87">
          <mxGeometry x="1" y="0.5" width="7" height="3" relative="1" as="geometry">
            <mxPoint x="-17" y="-4" as="offset" />
          </mxGeometry>
        </mxCell>
        <mxCell id="3Kz9qhTlE9TeD2FntRG9-176" value="" style="html=1;shadow=0;dashed=0;shape=mxgraph.bootstrap.rrect;rSize=5;strokeColor=#CED4DA;html=1;whiteSpace=wrap;fillColor=#FFFFFF;fontColor=#7D868C;align=left;spacingLeft=80;spacing=15;fontSize=14;" vertex="1" parent="3Kz9qhTlE9TeD2FntRG9-99">
          <mxGeometry x="154" width="29.040000000000003" height="33" as="geometry" />
        </mxCell>
        <mxCell id="3Kz9qhTlE9TeD2FntRG9-177" value="" style="shape=triangle;direction=south;fillColor=#343A40;strokeColor=none;perimeter=none;" vertex="1" parent="3Kz9qhTlE9TeD2FntRG9-176">
          <mxGeometry x="1" y="0.5" width="7" height="3" relative="1" as="geometry">
            <mxPoint x="-17" y="1" as="offset" />
          </mxGeometry>
        </mxCell>
        <mxCell id="3Kz9qhTlE9TeD2FntRG9-178" value="" style="shape=triangle;direction=north;fillColor=#343A40;strokeColor=none;perimeter=none;" vertex="1" parent="3Kz9qhTlE9TeD2FntRG9-176">
          <mxGeometry x="1" y="0.5" width="7" height="3" relative="1" as="geometry">
            <mxPoint x="-17" y="-4" as="offset" />
          </mxGeometry>
        </mxCell>
        <mxCell id="3Kz9qhTlE9TeD2FntRG9-101" value="Typ" style="html=1;shadow=0;dashed=0;strokeColor=#6C757D;gradientColor=inherit;fontColor=inherit;fillColor=inherit;perimeter=none;whiteSpace=wrap;resizeHeight=1;fontSize=14;" vertex="1" parent="3Kz9qhTlE9TeD2FntRG9-99">
          <mxGeometry width="70" height="30.697674418604652" relative="1" as="geometry">
            <mxPoint x="88" y="1" as="offset" />
          </mxGeometry>
        </mxCell>
        <mxCell id="3Kz9qhTlE9TeD2FntRG9-100" value="Nuimmer" style="html=1;shadow=0;dashed=0;shape=mxgraph.bootstrap.leftButton;strokeColor=#6C757D;gradientColor=inherit;fontColor=inherit;fillColor=inherit;rSize=5;perimeter=none;whiteSpace=wrap;resizeHeight=1;fontSize=14;" vertex="1" parent="3Kz9qhTlE9TeD2FntRG9-99">
          <mxGeometry width="70" height="33" relative="1" as="geometry" />
        </mxCell>
        <mxCell id="3Kz9qhTlE9TeD2FntRG9-150" value="Kunde" style="html=1;shadow=0;dashed=0;strokeColor=#6C757D;gradientColor=inherit;fontColor=inherit;fillColor=inherit;perimeter=none;whiteSpace=wrap;resizeHeight=1;fontSize=14;" vertex="1" parent="3Kz9qhTlE9TeD2FntRG9-99">
          <mxGeometry width="70" height="30.697674418604652" relative="1" as="geometry">
            <mxPoint x="176" y="1" as="offset" />
          </mxGeometry>
        </mxCell>
        <mxCell id="3Kz9qhTlE9TeD2FntRG9-151" value="Berater" style="html=1;shadow=0;dashed=0;strokeColor=#6C757D;gradientColor=inherit;fontColor=inherit;fillColor=inherit;perimeter=none;whiteSpace=wrap;resizeHeight=1;fontSize=14;" vertex="1" parent="3Kz9qhTlE9TeD2FntRG9-99">
          <mxGeometry width="70" height="30.697674418604652" relative="1" as="geometry">
            <mxPoint x="264" y="1" as="offset" />
          </mxGeometry>
        </mxCell>
        <mxCell id="3Kz9qhTlE9TeD2FntRG9-152" value="Status" style="html=1;shadow=0;dashed=0;strokeColor=#6C757D;gradientColor=inherit;fontColor=inherit;fillColor=inherit;perimeter=none;whiteSpace=wrap;resizeHeight=1;fontSize=14;" vertex="1" parent="3Kz9qhTlE9TeD2FntRG9-99">
          <mxGeometry width="70" height="30.697674418604652" relative="1" as="geometry">
            <mxPoint x="352" y="2" as="offset" />
          </mxGeometry>
        </mxCell>
        <mxCell id="3Kz9qhTlE9TeD2FntRG9-153" value="Startdatum" style="html=1;shadow=0;dashed=0;strokeColor=#6C757D;gradientColor=inherit;fontColor=inherit;fillColor=inherit;perimeter=none;whiteSpace=wrap;resizeHeight=1;fontSize=14;" vertex="1" parent="3Kz9qhTlE9TeD2FntRG9-99">
          <mxGeometry width="70" height="30.697674418604652" relative="1" as="geometry">
            <mxPoint x="440" y="1" as="offset" />
          </mxGeometry>
        </mxCell>
        <mxCell id="3Kz9qhTlE9TeD2FntRG9-154" value="Button" style="html=1;shadow=0;dashed=0;strokeColor=#6C757D;gradientColor=inherit;fontColor=inherit;fillColor=inherit;perimeter=none;whiteSpace=wrap;resizeHeight=1;fontSize=14;" vertex="1" parent="3Kz9qhTlE9TeD2FntRG9-99">
          <mxGeometry width="70" height="30.697674418604652" relative="1" as="geometry">
            <mxPoint x="528" as="offset" />
          </mxGeometry>
        </mxCell>
        <mxCell id="3Kz9qhTlE9TeD2FntRG9-155" value="Button" style="html=1;shadow=0;dashed=0;strokeColor=#6C757D;gradientColor=inherit;fontColor=inherit;fillColor=inherit;perimeter=none;whiteSpace=wrap;resizeHeight=1;fontSize=14;" vertex="1" parent="3Kz9qhTlE9TeD2FntRG9-99">
          <mxGeometry width="70" height="30.697674418604652" relative="1" as="geometry">
            <mxPoint x="623" y="2" as="offset" />
          </mxGeometry>
        </mxCell>
        <mxCell id="3Kz9qhTlE9TeD2FntRG9-156" value="Button" style="html=1;shadow=0;dashed=0;strokeColor=#6C757D;gradientColor=inherit;fontColor=inherit;fillColor=inherit;perimeter=none;whiteSpace=wrap;resizeHeight=1;fontSize=14;" vertex="1" parent="3Kz9qhTlE9TeD2FntRG9-99">
          <mxGeometry width="70" height="30.697674418604652" relative="1" as="geometry">
            <mxPoint x="715" y="1" as="offset" />
          </mxGeometry>
        </mxCell>
        <mxCell id="3Kz9qhTlE9TeD2FntRG9-170" value="" style="html=1;shadow=0;dashed=0;shape=mxgraph.bootstrap.rrect;rSize=5;strokeColor=#CED4DA;html=1;whiteSpace=wrap;fillColor=#FFFFFF;fontColor=#7D868C;align=left;spacingLeft=80;spacing=15;fontSize=14;" vertex="1" parent="3Kz9qhTlE9TeD2FntRG9-99">
          <mxGeometry x="242.00000000000003" width="29.040000000000003" height="33" as="geometry" />
        </mxCell>
        <mxCell id="3Kz9qhTlE9TeD2FntRG9-171" value="" style="shape=triangle;direction=south;fillColor=#343A40;strokeColor=none;perimeter=none;" vertex="1" parent="3Kz9qhTlE9TeD2FntRG9-170">
          <mxGeometry x="1" y="0.5" width="7" height="3" relative="1" as="geometry">
            <mxPoint x="-17" y="1" as="offset" />
          </mxGeometry>
        </mxCell>
        <mxCell id="3Kz9qhTlE9TeD2FntRG9-172" value="" style="shape=triangle;direction=north;fillColor=#343A40;strokeColor=none;perimeter=none;" vertex="1" parent="3Kz9qhTlE9TeD2FntRG9-170">
          <mxGeometry x="1" y="0.5" width="7" height="3" relative="1" as="geometry">
            <mxPoint x="-17" y="-4" as="offset" />
          </mxGeometry>
        </mxCell>
        <mxCell id="3Kz9qhTlE9TeD2FntRG9-179" value="" style="html=1;shadow=0;dashed=0;shape=mxgraph.bootstrap.rrect;rSize=5;strokeColor=#CED4DA;html=1;whiteSpace=wrap;fillColor=#FFFFFF;fontColor=#7D868C;align=left;spacingLeft=80;spacing=15;fontSize=14;" vertex="1" parent="3Kz9qhTlE9TeD2FntRG9-99">
          <mxGeometry x="1016.4000000000001" width="29.040000000000003" height="33" as="geometry" />
        </mxCell>
        <mxCell id="3Kz9qhTlE9TeD2FntRG9-180" value="" style="shape=triangle;direction=south;fillColor=#343A40;strokeColor=none;perimeter=none;" vertex="1" parent="3Kz9qhTlE9TeD2FntRG9-179">
          <mxGeometry x="1" y="0.5" width="7" height="3" relative="1" as="geometry">
            <mxPoint x="-17" y="1" as="offset" />
          </mxGeometry>
        </mxCell>
        <mxCell id="3Kz9qhTlE9TeD2FntRG9-181" value="" style="shape=triangle;direction=north;fillColor=#343A40;strokeColor=none;perimeter=none;" vertex="1" parent="3Kz9qhTlE9TeD2FntRG9-179">
          <mxGeometry x="1" y="0.5" width="7" height="3" relative="1" as="geometry">
            <mxPoint x="-17" y="-4" as="offset" />
          </mxGeometry>
        </mxCell>
        <mxCell id="3Kz9qhTlE9TeD2FntRG9-173" value="" style="html=1;shadow=0;dashed=0;shape=mxgraph.bootstrap.rrect;rSize=5;strokeColor=#CED4DA;html=1;whiteSpace=wrap;fillColor=#FFFFFF;fontColor=#7D868C;align=left;spacingLeft=80;spacing=15;fontSize=14;" vertex="1" parent="1">
          <mxGeometry x="924" y="243" width="29.040000000000003" height="33" as="geometry" />
        </mxCell>
        <mxCell id="3Kz9qhTlE9TeD2FntRG9-174" value="" style="shape=triangle;direction=south;fillColor=#343A40;strokeColor=none;perimeter=none;" vertex="1" parent="3Kz9qhTlE9TeD2FntRG9-173">
          <mxGeometry x="1" y="0.5" width="7" height="3" relative="1" as="geometry">
            <mxPoint x="-17" y="1" as="offset" />
          </mxGeometry>
        </mxCell>
        <mxCell id="3Kz9qhTlE9TeD2FntRG9-175" value="" style="shape=triangle;direction=north;fillColor=#343A40;strokeColor=none;perimeter=none;" vertex="1" parent="3Kz9qhTlE9TeD2FntRG9-173">
          <mxGeometry x="1" y="0.5" width="7" height="3" relative="1" as="geometry">
            <mxPoint x="-17" y="-4" as="offset" />
          </mxGeometry>
        </mxCell>
      </root>
    </mxGraphModel>
  </diagram>
</mxfile>
